<?xml version="1.0" encoding="UTF-8" standalone="no"?>
<!-- Created with Inkscape (http://www.inkscape.org/) -->

<svg
   version="1.1"
   id="svg1"
   viewBox="0 0 314 254.35071"
   sodipodi:docname="Gemini_Generated_Image_.png"
   xml:space="preserve"
   xmlns:inkscape="http://www.inkscape.org/namespaces/inkscape"
   xmlns:sodipodi="http://sodipodi.sourceforge.net/DTD/sodipodi-0.dtd"
   xmlns="http://www.w3.org/2000/svg"
   xmlns:svg="http://www.w3.org/2000/svg"><defs
     id="defs1"><mask
       id="location-pin-cutout"
       maskUnits="userSpaceOnUse"
       maskContentUnits="userSpaceOnUse"
       x="533"
       y="688"
       width="50"
       height="75"><rect
         x="533"
         y="688"
         width="50"
         height="75"
         fill="#ffffff" /><path
         fill="#000000"
         d="m 565.64343,722.30817 c 1.29654,-1.21803 2.895,-3.51265 3.55216,-5.09916 0.66165,-1.59738 0.91094,-4.34224 0.55865,-6.15122 -0.34989,-1.79667 -1.43111,-4.29944 -2.4027,-5.56172 -0.9716,-1.26228 -3.44206,-2.87107 -5.48992,-3.57509 -2.04787,-0.70403 -5.08743,-1.07985 -6.75459,-0.83516 -1.66715,0.24469 -4.34479,1.75849 -5.95031,3.364 -1.60551,1.60552 -3.19766,4.40387 -3.5381,6.21856 -0.38028,2.02708 -0.0325,4.70303 0.90182,6.93919 0.83643,2.00187 3.01036,4.57428 4.83096,5.71646 2.45024,1.53721 4.43044,1.96266 7.62244,1.63772 2.60202,-0.26488 5.24718,-1.3173 6.66959,-2.65358 z" /></mask></defs><sodipodi:namedview
     id="namedview1"
     pagecolor="#ffffff"
     bordercolor="#000000"
     borderopacity="0.25"
     inkscape:showpageshadow="2"
     inkscape:pageopacity="0.0"
     inkscape:pagecheckerboard="0"
     inkscape:deskcolor="#d1d1d1"><inkscape:page
       x="0"
       y="0"
       width="314"
       height="254.35071"
       id="page2"
       margin="0"
       bleed="0" /></sodipodi:namedview><g
     inkscape:groupmode="layer"
     inkscape:label="Image"
     id="g1"
     transform="translate(-321.16156,-688.29668)"><path
       style="fill:#a32424;fill-opacity:1"
       d="m 549.44027,749.04112 c -3.90951,-6.7375 -9.03677,-16.075 -11.39391,-20.75 -3.15485,-6.25713 -4.39711,-10.02633 -4.70793,-14.28449 -0.28588,-3.91653 0.12505,-7.21751 1.27252,-10.22212 1.03063,-2.69866 3.58594,-6.13797 6.52085,-8.77671 2.65436,-2.38649 6.61164,-4.87404 8.79396,-5.52788 2.18232,-0.65384 5.71565,-1.18629 7.85183,-1.18322 2.13619,0.003 5.63092,0.49063 7.76607,1.08347 2.17149,0.60294 6.00619,3.06476 8.70263,5.58696 2.77681,2.59738 5.52714,6.35925 6.48718,8.87307 1.15754,3.03097 1.54008,6.35145 1.25234,10.8703 -0.33396,5.24482 -1.25257,8.11303 -4.73791,14.79345 -2.378,4.55795 -7.47814,13.57467 -11.33366,20.03717 -3.85551,6.4625 -7.54006,11.75 -8.18789,11.75 -0.64783,0 -4.37657,-5.5125 -8.28608,-12.25 z"
       id="path13"
       mask="url(#location-pin-cutout)" /><path
       style="fill:#a32424;fill-opacity:1"
       d="m 397.16157,896.8703 c 0,-0.78145 2.39633,-5.61895 5.32518,-10.75 2.92885,-5.13104 11.18047,-19.67918 18.33694,-32.32918 7.15646,-12.65 16.1772,-28.625 20.04607,-35.5 3.86887,-6.875 12.32291,-21.95 18.78675,-33.5 6.46384,-11.55 13.0824,-23.36704 14.70791,-26.26009 1.62552,-2.89305 3.34227,-5.02104 3.81502,-4.72887 0.47274,0.29218 2.18429,2.88422 3.80343,5.7601 1.61915,2.87587 8.90918,15.80386 16.20008,28.72886 7.29089,12.925 22.35394,39.475 33.47343,59 11.1195,19.525 21.85705,38.46825 23.86123,42.0961 2.00418,3.62786 3.64396,7.11536 3.64396,7.75 0,0.81644 -4.05858,1.1539 -13.87755,1.1539 -11.25993,0 -14.11799,-0.28971 -15.15226,-1.53592 -0.70109,-0.84477 -4.24872,-6.80727 -7.88363,-13.25 l -6.60891,-11.71408 -27.98882,-0.5 c -25.78577,-0.46064 -27.97806,-0.63671 -27.85212,-2.2369 0.0752,-0.9553 2.75608,-6.3553 5.95754,-12 3.20145,-5.6447 6.28993,-10.5937 6.86329,-10.99778 0.57336,-0.40408 6.52841,-0.74158 13.23345,-0.75 6.70504,-0.008 12.45459,-0.44184 12.77677,-0.96314 0.32218,-0.5213 -3.07334,-7.6088 -7.5456,-15.75 -4.47226,-8.1412 -9.26897,-16.57019 -10.65936,-18.73109 -2.39166,-3.71706 -2.60272,-3.8267 -3.91415,-2.03321 -0.7624,1.04264 -4.60547,7.76065 -8.54016,14.92892 -3.93469,7.16826 -14.10119,25.4082 -22.59222,40.5332 -8.49104,15.125 -16.51968,29.1875 -17.84144,31.25 l -2.4032,3.75 h -13.98581 c -11.41877,0 -13.98582,-0.26078 -13.98582,-1.42082 z"
       id="path11" /><path
       style="fill:#6f1b17"
       d="m 358.41855,942.49359 -6.24303,-0.29754 -0.25697,-67.70246 -0.25698,-67.70247 -15.25,-0.27604 c -8.3875,-0.15183 -15.25,-0.66435 -15.25,-1.13894 0,-0.47459 12.7125,-10.23206 28.25,-21.68327 15.5375,-11.45121 46.475,-34.32883 68.75,-50.83916 22.275,-16.51034 44.48856,-33.06615 49.36346,-36.79069 4.8749,-3.72454 9.5999,-6.74726 10.5,-6.71715 0.9001,0.0301 12.15146,8.01761 25.00302,17.75 l 23.36647,17.69525 10.0917,19.7085 c 5.55043,10.83967 9.76749,20.0327 9.37123,20.42896 -0.39626,0.39626 -2.17744,-0.35879 -3.95817,-1.6779 -1.78074,-1.3191 -12.68771,-9.35163 -24.23771,-17.85006 -11.55,-8.49844 -24.98811,-18.33895 -29.86247,-21.86782 -5.31927,-3.85096 -9.55144,-6.23594 -10.58576,-5.96546 -0.94781,0.24785 -7.7597,4.94372 -15.13753,10.43526 -7.37783,5.49153 -29.16424,21.59729 -48.41424,35.79056 -19.25,14.19328 -36.01582,26.71823 -37.25739,27.83322 l -2.25739,2.02726 0.25739,63.06874 0.25739,63.06874 103.22978,0.25467 103.22978,0.25467 0.54636,-2.25467 c 0.30051,-1.24006 0.42211,-29.92967 0.27023,-63.75467 l -0.27615,-61.5 -10.21039,-7.5 c -5.61572,-4.125 -10.22583,-7.95 -10.24468,-8.5 -0.0189,-0.55 2.10391,-4.825 4.71726,-9.5 2.61334,-4.675 5.3174,-8.5 6.00901,-8.5 0.69161,0 15.20103,10.30405 32.24314,22.89789 17.04212,12.59383 30.98566,23.26961 30.98566,23.72395 0,0.45434 -6.8625,0.95029 -15.25,1.10212 l -15.25,0.27604 -0.25704,67.28409 c -0.20853,54.58402 -0.5059,67.37958 -1.57541,67.79 -0.7251,0.27824 -54.60943,0.6004 -119.74295,0.71591 -65.13353,0.1155 -121.23396,0.0761 -124.66762,-0.0875 z"
       id="path8" /></g></svg>
